<svg width="47" height="47" viewBox="0 0 47 47" fill="none" xmlns="http://www.w3.org/2000/svg">
<g id="icon/image/brightness_7_24px">
<path id="icon/image/brightness_7_24px_2" fill-rule="evenodd" clip-rule="evenodd" d="M32.1978 14.4287L29.5804 8.10975L23.2614 10.7271L16.9545 8.11475L14.3421 14.4216L8.02317 17.039L10.6406 23.358L8.02816 29.6649L14.3351 32.2773L16.9524 38.5962L23.2714 35.9788L29.5783 38.5912L32.1907 32.2843L38.5096 29.6669L35.8922 23.348L38.5046 17.0411L32.1978 14.4287ZM32.7344 23.3459L34.6988 28.0885L29.9562 30.0529L27.9989 34.7783L23.2735 32.821L18.5309 34.7854L16.5665 30.0428L11.8411 28.0855L13.7984 23.3601L11.834 18.6175L16.5766 16.6531L18.5339 11.9277L23.2593 13.885L28.0019 11.9206L29.9663 16.6631L34.6917 18.6205L32.7344 23.3459ZM15.8561 26.4224C14.1651 22.34 16.1146 17.6337 20.197 15.9427C24.2794 14.2517 28.9857 16.2012 30.6767 20.2835C32.3677 24.3659 30.4182 29.0723 26.3358 30.7633C22.2534 32.4543 17.5471 30.5048 15.8561 26.4224ZM25.2197 28.0686C22.6193 29.1457 19.6279 27.9066 18.5508 25.3063C17.4737 22.7059 18.7128 19.7144 21.3131 18.6374C23.9135 17.5603 26.9049 18.7994 27.982 21.3997C29.0591 24 27.82 26.9915 25.2197 28.0686ZM20.5718 24.4691C19.9553 22.9809 20.662 21.2748 22.1502 20.6583C23.6385 20.0419 25.3446 20.7486 25.961 22.2368C26.5775 23.725 25.8708 25.4312 24.3826 26.0476C22.8943 26.6641 21.1882 25.9574 20.5718 24.4691Z" fill="#799CF4"/>
</g>
</svg>
